<svg width="120" height="43" viewBox="0 0 120 43" fill="none" xmlns="http://www.w3.org/2000/svg">
<g clip-path="url(#clip0_5222_22381)">
<path d="M3.86304 15.5825C5.05707 16.2844 6.39659 16.6378 7.87658 16.6378C9.35658 16.6378 10.5757 16.328 11.6644 15.7132C12.748 15.0984 13.5658 14.3191 14.1126 13.38V16.3715H16.9121V0.295536H14.1126V3.229C13.5859 2.30927 12.7831 1.54444 11.7095 0.93935C10.6359 0.334261 9.36661 0.0292969 7.90668 0.0292969C6.44676 0.0292969 5.08215 0.372987 3.87809 1.05553C2.67402 1.74291 1.72582 2.70621 1.03349 3.94543C0.346168 5.18949 0 6.63202 0 8.27302C0 9.91402 0.346168 11.3469 1.03349 12.6151C1.72081 13.8882 2.66399 14.8757 3.86304 15.5776M3.58711 5.10236C4.09382 4.20199 4.7711 3.51945 5.62398 3.0499C6.47686 2.58035 7.42004 2.348 8.45353 2.348C9.48702 2.348 10.4352 2.59003 11.2981 3.06926C12.161 3.54849 12.8433 4.24071 13.3501 5.13624C13.8568 6.03661 14.1126 7.09189 14.1126 8.30691C14.1126 9.52192 13.8568 10.582 13.3501 11.4921C12.8433 12.4021 12.161 13.0944 11.2981 13.5736C10.4352 14.0528 9.48702 14.2949 8.45353 14.2949C7.42004 14.2949 6.47686 14.0577 5.62398 13.5736C4.7711 13.0944 4.09382 12.4021 3.58711 11.4921C3.0804 10.582 2.82453 9.51224 2.82453 8.27786C2.82453 7.04348 3.07538 6.00757 3.58711 5.1072" fill="white"/>
<path d="M24.4216 15.5825C25.6157 16.2844 26.9552 16.6378 28.4352 16.6378C29.9152 16.6378 31.1343 16.328 32.223 15.7132C33.3066 15.0984 34.1244 14.3191 34.6712 13.38V16.3715H37.4707V0.295536H34.6712V3.229C34.1444 2.30927 33.3417 1.54444 32.2681 0.93935C31.1895 0.334261 29.9252 0.0292969 28.4653 0.0292969C27.0054 0.0292969 25.6407 0.372987 24.4367 1.05553C23.2326 1.74291 22.2844 2.70621 21.5921 3.94543C20.9048 5.18949 20.5586 6.63202 20.5586 8.27302C20.5586 9.91402 20.9048 11.3469 21.5921 12.6151C22.2794 13.8882 23.2226 14.8757 24.4216 15.5776M24.1457 5.10236C24.6524 4.20199 25.3297 3.51945 26.1826 3.0499C27.0355 2.58035 27.9786 2.348 29.0121 2.348C30.0456 2.348 30.9938 2.59003 31.8567 3.06926C32.7196 3.54849 33.4019 4.24071 33.9086 5.13624C34.4154 6.03661 34.6662 7.09189 34.6662 8.30691C34.6662 9.52192 34.4154 10.582 33.9086 11.4921C33.4019 12.4021 32.7196 13.0944 31.8567 13.5736C30.9938 14.0528 30.0456 14.2949 29.0121 14.2949C27.9786 14.2949 27.0355 14.0577 26.1826 13.5736C25.3297 13.0944 24.6524 12.4021 24.1457 11.4921C23.639 10.582 23.3831 9.51224 23.3831 8.27786C23.3831 7.04348 23.634 6.00757 24.1457 5.1072" fill="white"/>
<path d="M50.5146 13.7043C49.9075 14.1545 49.0747 14.3772 48.0212 14.3772C46.8873 14.3772 45.9693 14.1254 45.2669 13.6123C44.5695 13.104 44.1782 12.4506 44.0979 11.647H41.2383C41.2985 12.6248 41.6246 13.4913 42.2116 14.2416C42.7985 14.9968 43.6013 15.5825 44.6147 16.0036C45.6281 16.4248 46.772 16.6329 48.0513 16.6329C49.2453 16.6329 50.3089 16.4345 51.227 16.0327C52.1501 15.6309 52.8625 15.0791 53.3692 14.3723C53.8759 13.6704 54.1318 12.8765 54.1318 11.9955C54.1117 11.0177 53.8308 10.2238 53.294 9.61874C52.7572 9.01365 52.115 8.55862 51.3624 8.25366C50.6099 7.94869 49.6366 7.64373 48.4426 7.32908C47.4894 7.07737 46.7419 6.84501 46.205 6.6417C45.6682 6.43839 45.2217 6.16247 44.8655 5.81878C44.5093 5.47509 44.3337 5.03943 44.3337 4.51179C44.3337 3.84861 44.6297 3.30646 45.2167 2.89984C45.8037 2.48838 46.5964 2.28507 47.5897 2.28507C48.6633 2.28507 49.5212 2.54162 50.1584 3.0499C50.7955 3.55817 51.1467 4.23587 51.2069 5.07331H53.9763C53.896 3.50976 53.289 2.27538 52.1501 1.37501C51.0213 0.479483 49.5313 0.0292969 47.685 0.0292969C46.486 0.0292969 45.4224 0.232607 44.4893 0.629545C43.5561 1.03132 42.8387 1.57348 42.332 2.25602C41.8253 2.93856 41.5744 3.69371 41.5744 4.51663C41.5744 5.55254 41.8503 6.38999 42.4122 7.02412C42.9691 7.65825 43.6364 8.13748 44.419 8.46181C45.2017 8.78614 46.2101 9.10078 47.4442 9.41543C48.8038 9.74944 49.8072 10.0883 50.4544 10.4271C51.1016 10.7708 51.4277 11.2936 51.4277 11.9955C51.4277 12.6974 51.1216 13.2493 50.5146 13.6995" fill="white"/>
<path d="M71.1009 3.229C70.5741 2.30927 69.7714 1.54444 68.6978 0.93935C67.6242 0.334261 66.3549 0.0292969 64.895 0.0292969C63.435 0.0292969 62.0704 0.372987 60.8664 1.05553C59.6573 1.74291 58.7141 2.70621 58.0218 3.94543C57.3345 5.18949 56.9883 6.63202 56.9883 8.27302C56.9883 9.91402 57.3345 11.3469 58.0218 12.6151C58.7091 13.8882 59.6523 14.8757 60.8513 15.5776C62.0454 16.2795 63.3849 16.6329 64.8649 16.6329C66.3449 16.6329 67.564 16.3231 68.6526 15.7083C69.7363 15.0936 70.5541 14.3142 71.1009 13.3751V16.3667H73.9004V0.295536H71.1009V3.229ZM70.3383 11.4873C69.8316 12.3973 69.1493 13.0895 68.2864 13.5688C67.4235 14.048 66.4753 14.29 65.4418 14.29C64.4083 14.29 63.4651 14.0528 62.6123 13.5688C61.7594 13.0895 61.0821 12.3973 60.5754 11.4873C60.0687 10.5772 59.8128 9.5074 59.8128 8.27302C59.8128 7.03864 60.0637 6.00273 60.5754 5.10236C61.0821 4.20199 61.7594 3.51945 62.6123 3.0499C63.4651 2.58035 64.4083 2.348 65.4418 2.348C66.4753 2.348 67.4235 2.59003 68.2864 3.06926C69.1493 3.54849 69.8316 4.24071 70.3383 5.13624C70.845 6.03661 71.1009 7.09189 71.1009 8.30691C71.1009 9.52192 70.845 10.582 70.3383 11.4921" fill="white"/>
<path d="M81.4099 15.5825C82.6039 16.2844 83.9435 16.6378 85.4235 16.6378C86.9035 16.6378 88.1226 16.328 89.2112 15.7132C90.2949 15.0984 91.1127 14.3191 91.6595 13.38V16.3715H94.4589V0.295536H91.6595V3.229C91.1327 2.30927 90.33 1.54444 89.2564 0.93935C88.1828 0.334261 86.9135 0.0292969 85.4536 0.0292969C83.9936 0.0292969 82.629 0.372987 81.425 1.05553C80.2159 1.74291 79.2727 2.70621 78.5804 3.94543C77.893 5.18949 77.5469 6.63202 77.5469 8.27302C77.5469 9.91402 77.893 11.3469 78.5804 12.6151C79.2677 13.8882 80.2109 14.8757 81.4099 15.5776M81.134 5.10236C81.6407 4.20199 82.318 3.51945 83.1709 3.0499C84.0237 2.58035 84.9669 2.348 86.0004 2.348C87.0339 2.348 87.9821 2.59003 88.845 3.06926C89.7079 3.54849 90.3902 4.24071 90.8969 5.13624C91.4036 6.03661 91.6595 7.09189 91.6595 8.30691C91.6595 9.52192 91.4036 10.582 90.8969 11.4921C90.3902 12.4021 89.7079 13.0944 88.845 13.5736C87.9821 14.0528 87.0339 14.2949 86.0004 14.2949C84.9669 14.2949 84.0237 14.0577 83.1709 13.5736C82.318 13.0944 81.6407 12.4021 81.134 11.4921C80.6273 10.582 80.3714 9.51224 80.3714 8.27786C80.3714 7.04348 80.6223 6.00757 81.134 5.1072" fill="white"/>
<path d="M107.261 -4.21056e-05C106.127 -4.21056e-05 105.089 0.227471 104.146 0.672816C103.202 1.123 102.46 1.75713 101.908 2.58005V0.295241H99.1387V16.3761H101.908V7.48369C101.908 5.80397 102.339 4.52118 103.202 3.64017C104.065 2.75916 105.224 2.31866 106.684 2.31866C108.144 2.31866 109.258 2.74464 110.091 3.5966C110.923 4.44857 111.34 5.67327 111.34 7.28038V16.3761V42.8402H114.069V16.3761H114.079V6.89312C114.079 4.66156 113.452 2.95763 112.193 1.77166C110.933 0.590524 109.293 -0.00488281 107.266 -0.00488281" fill="white"/>
<path d="M95.6981 40.3235L91.7096 26.9873H88.9202L84.8465 40.2944L81.0687 26.9873H78.2793L83.4367 42.8358H86.2562L90.2096 30.2548L94.1679 42.8358H96.9824L102.11 26.9873H99.4106L95.6981 40.3235Z" fill="white"/>
<path d="M106.328 20.8291C105.806 20.8291 105.37 21.0034 105.009 21.3471C104.647 21.6956 104.467 22.1167 104.467 22.6202C104.467 23.1236 104.647 23.5447 105.009 23.8933C105.37 24.2418 105.806 24.4161 106.328 24.4161C106.85 24.4161 107.251 24.2418 107.602 23.8933C107.954 23.5447 108.129 23.1236 108.129 22.6202C108.129 22.1167 107.954 21.6956 107.602 21.3471C107.251 20.9985 106.83 20.8291 106.328 20.8291Z" fill="white"/>
<path d="M107.653 26.9873H104.924V42.8358H107.653V26.9873Z" fill="white"/>
<path d="M119.999 21.4346H117.27V42.8353H119.999V21.4346Z" fill="white"/>
<path d="M71.8023 26.8223H0.837828C0.37627 26.8223 0 27.1853 0 27.6307C0 28.076 0.37627 28.4391 0.837828 28.4391H71.8023C72.2639 28.4391 72.6402 28.076 72.6402 27.6307C72.6402 27.1853 72.2639 26.8223 71.8023 26.8223Z" fill="white"/>
<path d="M71.8023 33.9385H0.837828C0.37627 33.9385 0 34.3015 0 34.7469C0 35.1922 0.37627 35.5553 0.837828 35.5553H71.8023C72.2639 35.5553 72.6402 35.1922 72.6402 34.7469C72.6402 34.3015 72.2639 33.9385 71.8023 33.9385Z" fill="white"/>
<path d="M71.8023 41.3828H0.837828C0.37627 41.3828 0 41.7459 0 42.1912C0 42.6366 0.37627 42.9996 0.837828 42.9996H71.8023C72.2639 42.9996 72.6402 42.6366 72.6402 42.1912C72.6402 41.7459 72.2639 41.3828 71.8023 41.3828Z" fill="white"/>
</g>
<defs>
<clipPath id="clip0_5222_22381">
<rect width="120" height="43" fill="white"/>
</clipPath>
</defs>
</svg>
