<svg viewBox="0 0 442.7 123.82" xmlns:xlink="http://www.w3.org/1999/xlink" xmlns="http://www.w3.org/2000/svg" data-sanitized-data-name="Layer 2" data-name="Layer 2" id="Layer_2">
  <defs>
    <style>
      .cls-1 {
        fill: none;
      }

      .cls-2 {
        fill: #ffcf00;
      }

      .cls-3 {
        fill: #fff;
      }

      .cls-4 {
        fill: #252525;
      }

      .cls-5 {
        clip-path: url(#clippath);
      }
    </style>
    <clipPath id="clippath">
      <rect height="77.39" width="47.79" y="23.22" x="38.02" class="cls-1"></rect>
    </clipPath>
  </defs>
  <g data-sanitized-data-name="Layer 1" data-name="Layer 1" id="Layer_1-2">
    <g data-sanitized-data-name="Layer 2" data-name="Layer 2" id="Layer_2-2">
      <g data-sanitized-data-name="Layer 1-2" data-name="Layer 1-2" id="Layer_1-2">
        <circle r="61.91" cy="61.91" cx="61.91" class="cls-2"></circle>
        <g class="cls-5">
          <path d="M45.18,40.52l13-7.52v19.3l20.46,11.7v19.18l-16.82,9.7-16.64-9.61v-42.75ZM39.81,88.44l20.19,11.68c.54.31,1.16.48,1.79.48.63,0,1.25-.16,1.79-.48l20.42-11.77c1.11-.64,1.79-1.83,1.79-3.11v-23.35c0-1.28-.68-2.47-1.79-3.11l-18.61-10.64v-21.34c0-1.98-1.6-3.59-3.59-3.59-.63,0-1.26.17-1.8.48l-20.19,11.66c-1.12.63-1.81,1.82-1.81,3.1v46.89c0,1.28.68,2.46,1.79,3.1h.02Z" class="cls-4"></path>
        </g>
        <g data-sanitized-data-name="Layer 2-2" data-name="Layer 2-2" id="Layer_2-2">
          <g data-sanitized-data-name="Layer 1-2-2" data-name="Layer 1-2-2" id="Layer_1-2-2">
            <path d="M183.82,51c0-7.12-5.61-13.92-13.43-13.92h-9.33c-3.12-.01-5.66,2.51-5.67,5.63h0s0,.07,0,.11v38c-.04,3.14,2.47,5.73,5.61,5.77,0,0,0,0,0,0h10c8.59-.15,15.49-7.14,15.53-15.74.01-4.41-1.8-8.64-5-11.67,1.49-2.47,2.28-5.3,2.29-8.18ZM166.82,48.5h2.64c1.88.11,3.33,1.68,3.3,3.56.05,1.73-1.27,3.19-3,3.3h-2.9l-.04-6.86ZM170.82,75.14h-4v-9.4h4c2.5.05,4.47,2.12,4.42,4.62,0,0,0,0,0,0v.06c.07,2.55-1.93,4.67-4.48,4.75l.06-.03Z" class="cls-3"></path>
            <path d="M222.29,48.53c3.13.03,5.68-2.48,5.71-5.61,0,0,0-.01,0-.02v-.11c.05-3.09-2.41-5.63-5.5-5.68,0,0,0,0,0,0h-17.11c-3.11-.04-5.68,2.44-5.72,5.56,0,0,0,.01,0,.02-.01.05-.01.11,0,.16v38c-.03,3.14,2.5,5.71,5.64,5.74,0,0,0,0,0,0h17.08c3.09.04,5.63-2.42,5.67-5.51,0,0,0,0,0,0v-.17c.05-3.12-2.44-5.69-5.56-5.74,0,0,0,0,0,0h-11.42v-7.78h11.21c3.15-.13,5.6-2.79,5.47-5.94-.12-2.97-2.5-5.34-5.47-5.47h-11.21v-7.45h11.21Z" class="cls-3"></path>
            <path d="M266.59,48.53c3.12,0,5.65-2.51,5.67-5.63v-.11c.05-3.09-2.41-5.63-5.5-5.68,0,0,0,0,0,0h-17.17c-3.1.03-5.6,2.56-5.59,5.66v38.08c-.03,3.14,2.5,5.71,5.64,5.74,0,0,0,0,0,0h17c3.09.04,5.63-2.42,5.67-5.51,0,0,0,0,0,0v-.17c.05-3.12-2.44-5.69-5.56-5.74,0,0,0,0,0,0h-11.36v-7.78h11.2c3.15-.13,5.6-2.79,5.47-5.94-.12-2.97-2.5-5.34-5.47-5.47h-11.2v-7.45h11.2Z" class="cls-3"></path>
            <path d="M310.83,75.17h-10v-32.71c.06-3.03-2.34-5.54-5.37-5.61h-.26c-3.01-.16-5.58,2.14-5.74,5.14,0,0,0,0,0,0-.01.16-.01.32,0,.48v38.52c0,3.24,2.71,5.55,6.07,5.55h15.3c3.08.06,5.62-2.38,5.68-5.46,0,0,0,0,0,0v-.28c.15-2.98-2.15-5.52-5.13-5.68-.18,0-.37.02-.55.04Z" class="cls-3"></path>
            <path d="M336.83,36.85c-3.11-.06-5.68,2.42-5.74,5.54,0,0,0,0,0,0v38.85c0,3.17,2.57,5.74,5.74,5.74s5.74-2.57,5.74-5.74v-38.78c.01-3.09-2.48-5.6-5.57-5.61h-.17Z" class="cls-3"></path>
            <path d="M393,36.85c-2.99-.11-5.49,2.23-5.6,5.21,0,0,0,.02,0,.03-.01.1-.01.2,0,.3v23l-15.07-24.85c-1.24-2.27-3.62-3.68-6.2-3.69-3.8.1-6.86,3.14-7,6.93v37.46c.02,3.11,2.55,5.63,5.67,5.61,0,0,0,0,.01,0h.12c3,.1,5.5-2.25,5.6-5.25,0-.1,0-.19,0-.29v-22.82l15.1,24.73c1.25,2.25,3.63,3.64,6.2,3.63,3.79-.11,6.85-3.14,7-6.93v-37.46c-.05-3.14-2.63-5.65-5.77-5.61h-.06Z" class="cls-3"></path>
            <path d="M437,67.39c3.15-.23,5.51-2.96,5.28-6.11-.21-2.83-2.45-5.08-5.28-5.28h-11.24v-7.47h11.24c3.12,0,5.65-2.51,5.67-5.63v-.11c.05-3.09-2.41-5.63-5.5-5.68,0,0,0,0,0,0h-17.17c-3.11,0-5.64,2.54-5.63,5.65,0,0,0,.01,0,.02v38.07c-.03,3.14,2.5,5.71,5.64,5.74,0,0,.01,0,.02,0h17c3.09.04,5.63-2.42,5.67-5.51,0,0,0,0,0,0v-.17c.05-3.12-2.44-5.69-5.56-5.74,0,0,0,0,0,0h-11.38v-7.78h11.24Z" class="cls-3"></path>
          </g>
        </g>
      </g>
    </g>
  </g>
</svg>