<svg width="49" height="44" viewBox="0 0 49 44" fill="none" xmlns="http://www.w3.org/2000/svg">
<g clip-path="url(#clip0_3934_207)">
<path d="M0.0507812 31.5313L15.4881 25.6626L30.9254 31.5313V43.9679H0.0507812V31.5313Z" fill="#FF2626"/>
<path d="M9.37011 18.236C9.03363 19.3757 8.54355 20.1794 7.89985 20.6469C7.27079 21.1145 6.36377 21.3483 5.1788 21.3483C3.59883 21.3337 2.3407 20.7492 1.40442 19.5949C0.468139 18.4405 0 16.7308 0 14.466V8.54809C0 5.62566 0.658322 3.47038 1.97496 2.08222C3.30624 0.694076 5.3324 0 8.05346 0C10.4965 0 12.3618 0.562567 13.6492 1.6877C14.9366 2.81284 15.5803 4.44939 15.5803 6.59737V8.26316H8.84345V6.66313C8.84345 5.77179 8.48503 5.32612 7.76819 5.32612C7.44635 5.32612 7.19033 5.45032 7.00015 5.69873C6.80997 5.93252 6.71488 6.25399 6.71488 6.66313V14.8166C6.71488 15.7226 7.09524 16.1756 7.85597 16.1756C8.20707 16.1756 8.48503 16.0514 8.68984 15.803C8.90928 15.5546 9.019 15.2185 9.019 14.7947V13.7208H7.98763V9.644H15.5803V21.0195H10.182L9.69927 18.236H9.37011Z" fill="white"/>
<path d="M24.1417 15.4742H30.3957V21.0196H17.4707V0.306885H30.2861V5.85218H24.1417V7.95633H29.9349V13.151H24.1417V15.4742Z" fill="white"/>
<path d="M41.9146 8.7673L41.6512 5.78644V0.306885H48.1248V21.0196H41.5855L38.645 11.7262H38.3597L38.645 14.5976V21.0196H32.1934V0.306885H38.9522L41.6293 8.7673H41.9146Z" fill="white"/>
<path d="M41.4539 23.1589H48.1249V43.8717H41.4539V36.1565L40.3896 35.6589L39.3253 36.1565V43.8936H32.6543V23.1589H39.3253V30.6331H41.4539V23.1589Z" fill="white"/>
</g>
<defs>
<clipPath id="clip0_3934_207">
<rect width="48.125" height="44" fill="white"/>
</clipPath>
</defs>
</svg>
