<svg viewBox="0 0 303 108" version="1.1" xmlns="http://www.w3.org/2000/svg" xmlns:xlink="http://www.w3.org/1999/xlink">
    <g id="gl-logo" stroke="none" stroke-width="1" fill="none" fill-rule="evenodd">
        <g id="gl-logo-dark-copy" transform="translate(0.464618, -0.230092)" fill="white">
            <path d="M-0.464617648,3.23324734 C-0.464617648,3.23324734 13.6761952,15.3054376 15.9520967,29.3970371 C18.2264718,43.4886367 14.8423848,66.2562166 23.5598052,83.293742 C32.2756991,100.331267 55.5353824,102.230092 55.5353824,102.230092 C55.5353824,102.230092 43.1301162,91.8842448 41.3319861,72.3495513 C39.5323295,52.8133314 44.1543482,30.2884468 31.2438349,16.4807552 C18.3333217,2.67306353 -0.464617648,3.23324734 -0.464617648,3.23324734" id="Fill-1"></path>
            <path d="M79.6009791,9.21197877 C82.3726541,16.4279144 78.7694766,24.5239186 71.5537261,27.2956648 C64.3364097,30.0674109 56.2406133,26.4641409 53.4689383,19.2482053 C50.6988292,12.0322696 54.3020067,3.93469944 61.5177572,1.16451928 C68.7335076,-1.60722684 76.8293041,1.99604311 79.6009791,9.21197877" id="Fill-3"></path>
            <path d="M80.5126226,78.0521134 C79.2361822,63.8757397 78.7057135,51.8375381 77.7291688,35.230092 L55.5353824,35.230092 C56.281354,50.6906022 54.4714309,72.1201119 62.9664655,89.1067867 C71.571512,106.313908 94.5353824,108.230092 94.5353824,108.230092 C94.5353824,108.230092 82.2893914,97.7812598 80.5126226,78.0521134" id="Fill-5"></path>
            <g id="Group-11" transform="translate(117.535382, 14.230092)">
                <path d="M18.5654544,18.4202511 L32.107438,18.4202511 L32.107438,18.6746034 C32.107438,24.4740512 30.4329477,29.2054349 27.2331586,32.4096271 C23.8351431,35.8185945 19.7965438,36.7346939 16.0542407,36.7346939 C11.2769877,36.7346939 7.87897228,35.3098899 4.87427946,32.1056977 C1.67449027,28.6967303 0,24.169044 0,19.2856955 C0,13.9938746 2.0678129,9.41661106 4.77620963,6.61765808 C7.58371948,3.66674039 12.0646763,1.53061224 17.137182,1.53061224 C20.0917966,1.53061224 23.1455244,2.19235931 25.705773,3.66674039 C28.4141698,5.24458681 30.08866,7.22875024 31.0244966,8.754864 L27.0359756,11.654049 C26.0500608,10.2303228 24.5727535,8.70420909 22.9973763,7.78810973 C21.1757813,6.66831299 19.2060382,6.31265089 17.1872602,6.31265089 C12.9024431,6.31265089 10.1439682,8.14377184 8.5195561,9.82292807 C6.35158676,12.0614438 5.02347081,15.6741085 5.02347081,19.3363504 C5.02347081,22.7442401 6.25456022,26.1532074 8.42044296,28.5436879 C10.6864821,31.0376336 13.4929487,31.9526552 16.6447463,31.9526552 C19.501291,31.9526552 21.8643567,31.0872108 23.9822479,28.9510826 C25.8038429,27.1199617 26.5435398,25.1357983 26.7407228,23.2022897 L18.5654544,23.2022897 L18.5654544,18.4202511 Z" id="Fill-7"></path>
                <path d="M52.7870414,16.979081 L54.4774722,16.979081 C55.9574388,16.979081 61.9814177,16.8282756 61.9814177,11.476286 C61.9814177,6.73072685 57.2784377,6.27617138 54.6364399,6.27617138 L52.7870414,6.27617138 L52.7870414,16.979081 Z M53.6848729,1.53061224 C57.9658049,1.53061224 60.7130348,2.0354362 62.9856007,3.4996396 C66.8433653,5.97349091 67.1601812,9.9618141 67.1601812,11.4260175 C67.1601812,16.2721136 64.0423998,19.8069509 59.3394199,20.8155292 L70.3305785,35.2040816 L63.8308161,35.2040816 L53.7374889,21.4219597 L52.7870414,21.4219597 L52.7870414,35.2040816 L47.3966942,35.2040816 L47.3966942,1.53061224 L53.6848729,1.53061224 Z" id="Fill-9"></path>
                <polygon id="Fill-11" points="103.966942 6.37670835 89.5994424 6.37670835 89.5994424 14.9084472 103.534407 14.9084472 103.534407 19.7556128 89.5994424 19.7556128 89.5994424 30.356916 103.966942 30.356916 103.966942 35.2040816 84.0909091 35.2040816 84.0909091 1.53061224 103.966942 1.53061224"></polygon>
                <polygon id="Fill-13" points="139.132231 6.37670835 124.764732 6.37670835 124.764732 14.9084472 138.699696 14.9084472 138.699696 19.7556128 124.764732 19.7556128 124.764732 30.356916 139.132231 30.356916 139.132231 35.2040816 119.256198 35.2040816 119.256198 1.53061224 139.132231 1.53061224"></polygon>
                <polygon id="Fill-15" points="155.950413 36.1821008 155.950413 0 179.944154 25.7639209 179.944154 2.28668121 185 2.28668121 185 38.2653061 161.00731 12.5013852 161.00731 36.1821008"></polygon>
                <polygon id="Fill-17" points="4.81312177 47.4489796 4.81312177 73.3480299 12.231405 73.3480299 12.231405 75 3.05785124 75 3.05785124 47.4489796"></polygon>
                <polygon id="Fill-19" points="25.9917355 75 27.5206612 75 27.5206612 47.4489796 25.9917355 47.4489796"></polygon>
                <polygon id="Fill-21" points="46.7304041 49.1020408 46.7304041 75 45.0061687 75 45.0061687 49.1020408 38.2231405 49.1020408 38.2231405 47.4489796 53.5123967 47.4489796 53.5123967 49.1020408"></polygon>
                <polygon id="Fill-22" points="69.0506318 59.1382502 85.3708558 59.1382502 85.3708558 47.4489796 87.1487603 47.4489796 87.1487603 75 85.3708558 75 85.3708558 60.7902202 69.0506318 60.7902202 69.0506318 75 67.2727273 75 67.2727273 47.4489796 69.0506318 47.4489796"></polygon>
                <polygon id="Fill-23" points="102.438017 75 103.966942 75 103.966942 47.4489796 102.438017 47.4489796"></polygon>
                <path d="M120.886447,47.4489796 L120.886447,64.3943707 C120.886447,66.9545353 120.997023,68.6205208 121.923701,70.2457154 C123.368027,72.8058799 126.072714,73.3748054 127.665779,73.3748054 C129.257865,73.3748054 131.961573,72.8058799 133.406878,70.2457154 C134.332577,68.6205208 134.444131,66.9545353 134.444131,64.3943707 L134.444131,47.4489796 L136.07438,47.4489796 L136.07438,64.3943707 C136.07438,67.3613706 135.925642,69.3118189 134.66626,71.3427754 C132.814861,74.3087019 129.888045,75 127.665779,75 C125.442534,75 122.515718,74.3087019 120.664319,71.3427754 C119.403958,69.3118189 119.256198,67.3613706 119.256198,64.3943707 L119.256198,47.4489796 L120.886447,47.4489796 Z" id="Fill-24"></path>
                <path d="M151.363636,74.0219688 L154.387905,45.9183673 L165.887904,71.0491415 L177.387903,45.9183673 L180.413223,74.0219688 L178.661944,74.0219688 L176.31464,52.1900325 C176.31464,52.1900325 165.927849,75 165.887904,75 L155.462219,52.1900325 L153.114916,74.0219688 L151.363636,74.0219688 Z" id="Fill-25"></path>
            </g>
        </g>
    </g>
</svg>