<svg xml:space="preserve" style="enable-background:new 0 0 632 200;" viewBox="0 0 632 200" y="0px" x="0px" xmlns:xlink="http://www.w3.org/1999/xlink" xmlns="http://www.w3.org/2000/svg" id="Layer_1" version="1.1">
<style type="text/css">
	.st0{fill:#0F1820;}
	.st1{fill:#FFFFFF;}
	.st2{fill:url(#SVGID_1_);}
	.st3{fill:url(#SVGID_00000165916740416357158940000007657973327929808521_);}
	.st4{fill:url(#SVGID_00000116196911442909058600000004595490726443751083_);}
	.st5{fill:url(#SVGID_00000067918144771770443540000005942824731585633203_);}
	.st6{fill:url(#SVGID_00000031909197915236886810000010658313215597681836_);}
	.st7{fill:url(#SVGID_00000067204162267889774050000006123746952357249961_);}
	.st8{fill:url(#SVGID_00000049934357785681915300000006443207417009473720_);}
	.st9{fill:url(#SVGID_00000057859112198866863570000008217285293104263060_);}
	.st10{fill:url(#SVGID_00000107576451569644884480000003835018631496835240_);}
	.st11{fill:url(#SVGID_00000052073174536721610540000011092863700238532231_);}
	.st12{fill:url(#SVGID_00000032647001464312678070000016630223422609374886_);}
	.st13{fill:url(#SVGID_00000130648671218158187860000007546024248124821425_);}
	.st14{fill:url(#SVGID_00000148631444010140740500000001906614977307483023_);}
	.st15{fill:url(#SVGID_00000101819127017023775970000010337194570654612652_);}
	.st16{fill:url(#SVGID_00000093158805498032204600000002483537490701926534_);}
	.st17{fill:url(#SVGID_00000063601083771380883730000012985990343950349728_);}
	.st18{fill:url(#SVGID_00000013171661240528664400000014879396832084486277_);}
	.st19{fill:url(#SVGID_00000063593080629263540090000017998607831205496255_);}
	.st20{fill:url(#SVGID_00000100353006946596936540000007944382188543503492_);}
	.st21{fill:url(#SVGID_00000016759847898840194810000010303177246802457247_);}
	.st22{fill:url(#SVGID_00000080189810547388374390000005618859876376443533_);}
	.st23{fill:url(#SVGID_00000025401238858878917400000000956409404009894830_);}
	.st24{fill:url(#SVGID_00000127739656684126101260000011943611830674646448_);}
	.st25{fill:url(#SVGID_00000151539762104526183100000009645852051405445798_);}
	.st26{fill:url(#SVGID_00000182498837056537668020000004658029566146595767_);}
	.st27{fill:url(#SVGID_00000040566693142424759190000005485580173707853230_);}
	.st28{fill:url(#SVGID_00000067229447664374912210000008076813520774654869_);}
	.st29{fill:url(#SVGID_00000120556991354545895970000003061085348861059252_);}
	.st30{fill:url(#SVGID_00000146473908378307685900000003824967370934354601_);}
	.st31{fill:url(#SVGID_00000013910908861599151940000008229083602354473620_);}
	.st32{fill:url(#SVGID_00000126288617896694305120000015187040439791439768_);}
	.st33{fill:url(#SVGID_00000003822033770580277220000004862712440323800497_);}
	.st34{fill:url(#SVGID_00000104671681438385222970000006237637961922939009_);}
	.st35{fill:url(#SVGID_00000129904513309526522140000011218810291632441771_);}
	.st36{fill:url(#SVGID_00000057856885151175710970000010075633300015710883_);}
	.st37{fill:url(#SVGID_00000051353307236831620640000016440097229631134625_);}
	.st38{fill:url(#SVGID_00000176023511526654768870000007113931928794216888_);}
	.st39{fill:url(#SVGID_00000044883404412766914380000010791393406821697462_);}
	.st40{fill:url(#SVGID_00000121238298184923979770000001397513302530678692_);}
	.st41{fill:url(#SVGID_00000057111679931780025390000016988960305668540800_);}
</style>
<g>
	<g>
		<linearGradient y2="63.0829" x2="315.4339" y1="134.3808" x1="315.4339" gradientUnits="userSpaceOnUse" id="SVGID_1_">
			<stop style="stop-color:#FFFFFF" offset="0"></stop>
			<stop style="stop-color:#FFFFFF" offset="1"></stop>
		</linearGradient>
		<path d="M310.5,68.5h-11.8c-0.2,0-0.3,0.1-0.3,0.3v26.5l-15.2,0.2l-15.1-0.2V68.7c0-0.2-0.1-0.3-0.4-0.3h-11.8
			c-0.2,0-0.3,0.2-0.3,0.3v63.4c0,0.2,0.2,0.3,0.3,0.3h11.8c0.3,0,0.4-0.2,0.4-0.3v-25l15.1-0.1h1.1h14.1v12.8h12.3l0-51.1
			C310.8,68.6,310.7,68.5,310.5,68.5z" class="st2"></path>
		
			<linearGradient y2="63.0829" x2="315.4339" y1="134.3808" x1="315.4339" gradientUnits="userSpaceOnUse" id="SVGID_00000107549582961978292310000012649745961136156857_">
			<stop style="stop-color:#FFFFFF" offset="0"></stop>
			<stop style="stop-color:#FFFFFF" offset="1"></stop>
		</linearGradient>
		<path d="M139.1,68.4H126c-0.1,0-0.2,0.1-0.3,0.2
			l-20.3,39.7L84.4,68.6c-0.1-0.1-0.2-0.2-0.3-0.2h-14c-0.2,0-0.3,0.1-0.3,0.3v63.4c0,0.2,0.1,0.3,0.3,0.3h11.1
			c0.2,0,0.3-0.1,0.3-0.3V87.8l22.8,43c0.5,0.8,0.6,0.8,1.1,0L127.8,87v24.2h11.6V68.7C139.5,68.5,139.4,68.4,139.1,68.4z" style="fill:url(#SVGID_00000107549582961978292310000012649745961136156857_);"></path>
		
			<linearGradient y2="63.0829" x2="315.4339" y1="134.3808" x1="315.4339" gradientUnits="userSpaceOnUse" id="SVGID_00000092457480286905334700000004231094964439841471_">
			<stop style="stop-color:#FFFFFF" offset="0"></stop>
			<stop style="stop-color:#FFFFFF" offset="1"></stop>
		</linearGradient>
		<path d="M213.2,68.4h-12.6
			c-0.2,0-0.3,0.1-0.4,0.2l-17,43.2l-16-43.2c0-0.1-0.2-0.2-0.3-0.2h-13.2c-0.3,0-0.5,0.2-0.4,0.4l24.8,63.4
			c0.1,0.1,0.2,0.2,0.3,0.2h8.1c0.1,0,0.2-0.1,0.3-0.2l26.6-63.4C213.6,68.6,213.5,68.4,213.2,68.4z" style="fill:url(#SVGID_00000092457480286905334700000004231094964439841471_);"></path>
		
			<linearGradient y2="63.0829" x2="315.4339" y1="134.3808" x1="315.4339" gradientUnits="userSpaceOnUse" id="SVGID_00000024720041360361970050000016037328511660916152_">
			<stop style="stop-color:#FFFFFF" offset="0"></stop>
			<stop style="stop-color:#FFFFFF" offset="1"></stop>
		</linearGradient>
		<path d="M233,122.9c-3.2,0-5.5,2.4-5.5,5.8
			c0,3.3,2.2,5.8,5.4,5.8c3.4,0,5.5-2.5,5.5-5.8C238.4,125.2,236.2,122.9,233,122.9z" style="fill:url(#SVGID_00000024720041360361970050000016037328511660916152_);"></path>
		
			<linearGradient y2="63.0829" x2="315.4339" y1="134.3808" x1="315.4339" gradientUnits="userSpaceOnUse" id="SVGID_00000129900653713456702390000012370250182319491255_">
			<stop style="stop-color:#FFFFFF" offset="0"></stop>
			<stop style="stop-color:#FFFFFF" offset="1"></stop>
		</linearGradient>
		<path d="M432.2,81.8h-11.9
			c-0.2,0-0.3,0.1-0.3,0.3v6.4c0,0-4.5-7.3-14.9-7.3c-11.8,0-23.8,9.9-23.8,26.2c0,16.3,11.7,26.2,24.9,26.2c6.4,0,9.8-1.9,13.4-6.3
			c0.2-0.2,0.5-0.1,0.5,0.2l-0.1,4.7c0,0.2,0.1,0.3,0.3,0.3h11.9c0.1,0,0.3-0.1,0.3-0.3l0.1-50.2C432.4,81.9,432.3,81.8,432.2,81.8z
			 M406.4,122.2c-7.8-0.2-12.4-5.7-12.5-14.9c0.1-9.2,4.7-14.7,12.5-14.9c7.8,0.2,12.4,5.7,12.5,14.9
			C418.8,116.5,414.2,122,406.4,122.2z" style="fill:url(#SVGID_00000129900653713456702390000012370250182319491255_);"></path>
		
			<linearGradient y2="63.0829" x2="315.4339" y1="134.3808" x1="315.4339" gradientUnits="userSpaceOnUse" id="SVGID_00000146495727704798787500000004812812925298918821_">
			<stop style="stop-color:#FFFFFF" offset="0"></stop>
			<stop style="stop-color:#FFFFFF" offset="1"></stop>
		</linearGradient>
		<path d="M543.6,82.4c-10.5,0-17.6,6.2-17.6,6.2
			V63.4c0-0.2-0.1-0.3-0.3-0.3l-11.9,0c-0.1,0-0.3,0.1-0.3,0.3v68.8c0,0.2,0.1,0.3,0.3,0.3h11.9c0.2,0,0.3-0.1,0.3-0.3
			c0,0,0-16.5,0-21.9c0-7.6,5.3-16.4,13.2-16.4c5.7,0,9.4,3.3,9.4,9.3v29.1c0,0.2,0.1,0.3,0.3,0.3h11.9c0.2,0,0.3-0.1,0.3-0.3v-30
			C561,89.9,554.9,82.4,543.6,82.4z" style="fill:url(#SVGID_00000146495727704798787500000004812812925298918821_);"></path>
		
			<linearGradient y2="63.0829" x2="315.4339" y1="134.3808" x1="315.4339" gradientUnits="userSpaceOnUse" id="SVGID_00000166674174207676571830000010051614102887105717_">
			<stop style="stop-color:#FFFFFF" offset="0"></stop>
			<stop style="stop-color:#FFFFFF" offset="1"></stop>
		</linearGradient>
		<path d="M455.4,63.2h-11.9
			c-0.2,0-0.3,0.1-0.3,0.3v68.8c0,0.2,0.1,0.3,0.3,0.3h11.9c0.2,0,0.3-0.1,0.3-0.3V63.4C455.7,63.3,455.6,63.2,455.4,63.2z" style="fill:url(#SVGID_00000166674174207676571830000010051614102887105717_);"></path>
		
			<linearGradient y2="63.0829" x2="315.4339" y1="134.3808" x1="315.4339" gradientUnits="userSpaceOnUse" id="SVGID_00000005970346444410845220000006692654749207778203_">
			<stop style="stop-color:#FFFFFF" offset="0"></stop>
			<stop style="stop-color:#FFFFFF" offset="1"></stop>
		</linearGradient>
		<path d="M503.5,119.4c-3.6,1.3-6.8,2.1-9.4,2.1
			c-5.2,0-8-3.1-8-9V95.3h17.5c0.2,0,0.3-0.1,0.3-0.3V83.2c0-0.1-0.1-0.3-0.3-0.3H486V69.9c0-0.2-0.1-0.3-0.3-0.3h-11.9
			c-0.1,0-0.3,0.1-0.3,0.3v13.1h-7.8c-0.2,0-0.3,0.1-0.3,0.3V95c0,0.1,0.1,0.3,0.3,0.3h7.8v17.9c0,14.4,8.8,20.5,18.8,20.5
			c4.3,0,8.3-1.1,11.3-2.4c0.1,0,0.2-0.1,0.2-0.3v-11.3C503.8,119.5,503.6,119.4,503.5,119.4z" style="fill:url(#SVGID_00000005970346444410845220000006692654749207778203_);"></path>
		
			<linearGradient y2="63.0829" x2="315.4339" y1="134.3808" x1="315.4339" gradientUnits="userSpaceOnUse" id="SVGID_00000093158329283697007370000004560737332377111218_">
			<stop style="stop-color:#FFFFFF" offset="0"></stop>
			<stop style="stop-color:#FFFFFF" offset="1"></stop>
		</linearGradient>
		<path d="M360.1,84.6c-2.9-1.6-6.1-2.7-9.7-3.2
			c-0.2,0-0.4,0-0.6-0.1c-1.1-0.1-2.2-0.2-3.4-0.2c-1.2,0-2.3,0.1-3.4,0.2c-0.2,0-0.4,0-0.6,0.1c-3.6,0.5-6.8,1.6-9.7,3.2
			c-7.7,4.4-12.5,12.5-12.6,22.8c0.1,10.2,4.9,18.4,12.6,22.8c2.9,1.6,6.1,2.7,9.7,3.2c0.2,0,0.4,0,0.6,0.1c1.1,0.1,2.2,0.2,3.4,0.2
			c1.2,0,2.3-0.1,3.4-0.2c0.2,0,0.4,0,0.6-0.1c3.6-0.5,6.8-1.6,9.7-3.2c5-2.8,8.8-7.3,10.8-12.8c0.1-0.2-0.1-0.4-0.3-0.4H358
			c-0.1,0-0.2,0-0.2,0.1c-2.3,3.2-5.8,5.2-11.5,5.2s-13.7-3-13.7-11.2l39.5,0c0.1,0,0.3-0.1,0.3-0.2c0.1-1,0.2-2.1,0.2-3.1
			C372.5,97.5,367.8,89,360.1,84.6z M332.7,102.7c0,0,2-10.3,13.4-10.3c12.1,0,14.2,10.3,14.2,10.3H332.7z" style="fill:url(#SVGID_00000093158329283697007370000004560737332377111218_);"></path>
	</g>
	<g>
		
			<linearGradient y2="68.4719" x2="283.282" y1="132.4338" x1="283.282" gradientUnits="userSpaceOnUse" id="SVGID_00000036974546891193727510000011577604919151137200_">
			<stop style="stop-color:#FFFFFF" offset="0"></stop>
			<stop style="stop-color:#FFFFFF" offset="1"></stop>
		</linearGradient>
		<path d="M310.5,68.5h-11.8
			c-0.2,0-0.3,0.1-0.3,0.3v26.5l-15.2,0.2l-15.1-0.2V68.7c0-0.2-0.1-0.3-0.4-0.3h-11.8c-0.2,0-0.3,0.2-0.3,0.3v63.4
			c0,0.2,0.2,0.3,0.3,0.3h11.8c0.3,0,0.4-0.2,0.4-0.3v-25l15.1-0.1h1.1h14.1v12.8h12.3l0-51.1C310.8,68.6,310.7,68.5,310.5,68.5z" style="fill:url(#SVGID_00000036974546891193727510000011577604919151137200_);"></path>
		
			<linearGradient y2="68.4092" x2="104.6396" y1="132.371" x1="104.6396" gradientUnits="userSpaceOnUse" id="SVGID_00000072966113033194906600000011954113421467230112_">
			<stop style="stop-color:#FFFFFF" offset="0"></stop>
			<stop style="stop-color:#FFFFFF" offset="1"></stop>
		</linearGradient>
		<path d="M139.1,68.4H126c-0.1,0-0.2,0.1-0.3,0.2
			l-20.3,39.7L84.4,68.6c-0.1-0.1-0.2-0.2-0.3-0.2h-14c-0.2,0-0.3,0.1-0.3,0.3v63.4c0,0.2,0.1,0.3,0.3,0.3h11.1
			c0.2,0,0.3-0.1,0.3-0.3V87.8l22.8,43c0.5,0.8,0.6,0.8,1.1,0L127.8,87v24.2h11.6V68.7C139.5,68.5,139.4,68.4,139.1,68.4z" style="fill:url(#SVGID_00000072966113033194906600000011954113421467230112_);"></path>
		
			<linearGradient y2="68.4092" x2="183.4585" y1="132.371" x1="183.4585" gradientUnits="userSpaceOnUse" id="SVGID_00000044884835376904682920000007984355792602714556_">
			<stop style="stop-color:#FFFFFF" offset="0"></stop>
			<stop style="stop-color:#FFFFFF" offset="1"></stop>
		</linearGradient>
		<path d="M213.2,68.4h-12.6
			c-0.2,0-0.3,0.1-0.4,0.2l-17,43.2l-16-43.2c0-0.1-0.2-0.2-0.3-0.2h-13.2c-0.3,0-0.5,0.2-0.4,0.4l24.8,63.4
			c0.1,0.1,0.2,0.2,0.3,0.2h8.1c0.1,0,0.2-0.1,0.3-0.2l26.6-63.4C213.6,68.6,213.5,68.4,213.2,68.4z" style="fill:url(#SVGID_00000044884835376904682920000007984355792602714556_);"></path>
		
			<linearGradient y2="122.8682" x2="232.9686" y1="134.3808" x1="232.9686" gradientUnits="userSpaceOnUse" id="SVGID_00000047028620175429927030000009315517873447712427_">
			<stop style="stop-color:#FFFFFF" offset="0"></stop>
			<stop style="stop-color:#FFFFFF" offset="1"></stop>
		</linearGradient>
		<path d="M233,122.9c-3.2,0-5.5,2.4-5.5,5.8
			c0,3.3,2.2,5.8,5.4,5.8c3.4,0,5.5-2.5,5.5-5.8C238.4,125.2,236.2,122.9,233,122.9z" style="fill:url(#SVGID_00000047028620175429927030000009315517873447712427_);"></path>
		
			<linearGradient y2="81.1269" x2="406.8555" y1="133.5743" x1="406.8555" gradientUnits="userSpaceOnUse" id="SVGID_00000011023591007817728540000012421318154910346895_">
			<stop style="stop-color:#FFFFFF" offset="0"></stop>
			<stop style="stop-color:#FFFFFF" offset="1"></stop>
		</linearGradient>
		<path d="M432.2,81.8h-11.9
			c-0.2,0-0.3,0.1-0.3,0.3v6.4c0,0-4.5-7.3-14.9-7.3c-11.8,0-23.8,9.9-23.8,26.2c0,16.3,11.7,26.2,24.9,26.2c6.4,0,9.8-1.9,13.4-6.3
			c0.2-0.2,0.5-0.1,0.5,0.2l-0.1,4.7c0,0.2,0.1,0.3,0.3,0.3h11.9c0.1,0,0.3-0.1,0.3-0.3l0.1-50.2C432.4,81.9,432.3,81.8,432.2,81.8z
			 M406.4,122.2c-7.8-0.2-12.4-5.7-12.5-14.9c0.1-9.2,4.7-14.7,12.5-14.9c7.8,0.2,12.4,5.7,12.5,14.9
			C418.8,116.5,414.2,122,406.4,122.2z" style="fill:url(#SVGID_00000011023591007817728540000012421318154910346895_);"></path>
		
			<linearGradient y2="63.0829" x2="537.3489" y1="132.4809" x1="537.3489" gradientUnits="userSpaceOnUse" id="SVGID_00000082363625636629646560000006991676336043755656_">
			<stop style="stop-color:#FFFFFF" offset="0"></stop>
			<stop style="stop-color:#FFFFFF" offset="1"></stop>
		</linearGradient>
		<path d="M543.6,82.4c-10.5,0-17.6,6.2-17.6,6.2
			V63.4c0-0.2-0.1-0.3-0.3-0.3l-11.9,0c-0.1,0-0.3,0.1-0.3,0.3v68.8c0,0.2,0.1,0.3,0.3,0.3h11.9c0.2,0,0.3-0.1,0.3-0.3
			c0,0,0-16.5,0-21.9c0-7.6,5.3-16.4,13.2-16.4c5.7,0,9.4,3.3,9.4,9.3v29.1c0,0.2,0.1,0.3,0.3,0.3h11.9c0.2,0,0.3-0.1,0.3-0.3v-30
			C561,89.9,554.9,82.4,543.6,82.4z" style="fill:url(#SVGID_00000082363625636629646560000006991676336043755656_);"></path>
		
			<linearGradient y2="63.1725" x2="449.494" y1="132.4885" x1="449.494" gradientUnits="userSpaceOnUse" id="SVGID_00000081620392531967878620000005842085490039276466_">
			<stop style="stop-color:#FFFFFF" offset="0"></stop>
			<stop style="stop-color:#FFFFFF" offset="1"></stop>
		</linearGradient>
		<path d="M455.4,63.2h-11.9
			c-0.2,0-0.3,0.1-0.3,0.3v68.8c0,0.2,0.1,0.3,0.3,0.3h11.9c0.2,0,0.3-0.1,0.3-0.3V63.4C455.7,63.3,455.6,63.2,455.4,63.2z" style="fill:url(#SVGID_00000081620392531967878620000005842085490039276466_);"></path>
		
			<linearGradient y2="69.601" x2="484.6535" y1="133.6666" x1="484.6535" gradientUnits="userSpaceOnUse" id="SVGID_00000062164605214859032610000001226299158579357344_">
			<stop style="stop-color:#FFFFFF" offset="0"></stop>
			<stop style="stop-color:#FFFFFF" offset="1"></stop>
		</linearGradient>
		<path d="M503.5,119.4c-3.6,1.3-6.8,2.1-9.4,2.1
			c-5.2,0-8-3.1-8-9V95.3h17.5c0.2,0,0.3-0.1,0.3-0.3V83.2c0-0.1-0.1-0.3-0.3-0.3H486V69.9c0-0.2-0.1-0.3-0.3-0.3h-11.9
			c-0.1,0-0.3,0.1-0.3,0.3v13.1h-7.8c-0.2,0-0.3,0.1-0.3,0.3V95c0,0.1,0.1,0.3,0.3,0.3h7.8v17.9c0,14.4,8.8,20.5,18.8,20.5
			c4.3,0,8.3-1.1,11.3-2.4c0.1,0,0.2-0.1,0.2-0.3v-11.3C503.8,119.5,503.6,119.4,503.5,119.4z" style="fill:url(#SVGID_00000062164605214859032610000001226299158579357344_);"></path>
		
			<linearGradient y2="81.1391" x2="346.4511" y1="133.6058" x1="346.4511" gradientUnits="userSpaceOnUse" id="SVGID_00000050627022234909940810000002390834557620966821_">
			<stop style="stop-color:#FFFFFF" offset="0"></stop>
			<stop style="stop-color:#FFFFFF" offset="1"></stop>
		</linearGradient>
		<path d="M360.1,84.6c-2.9-1.6-6.1-2.7-9.7-3.2
			c-0.2,0-0.4,0-0.6-0.1c-1.1-0.1-2.2-0.2-3.4-0.2c-1.2,0-2.3,0.1-3.4,0.2c-0.2,0-0.4,0-0.6,0.1c-3.6,0.5-6.8,1.6-9.7,3.2
			c-7.7,4.4-12.5,12.5-12.6,22.8c0.1,10.2,4.9,18.4,12.6,22.8c2.9,1.6,6.1,2.7,9.7,3.2c0.2,0,0.4,0,0.6,0.1c1.1,0.1,2.2,0.2,3.4,0.2
			c1.2,0,2.3-0.1,3.4-0.2c0.2,0,0.4,0,0.6-0.1c3.6-0.5,6.8-1.6,9.7-3.2c5-2.8,8.8-7.3,10.8-12.8c0.1-0.2-0.1-0.4-0.3-0.4H358
			c-0.1,0-0.2,0-0.2,0.1c-2.3,3.2-5.8,5.2-11.5,5.2s-13.7-3-13.7-11.2l39.5,0c0.1,0,0.3-0.1,0.3-0.2c0.1-1,0.2-2.1,0.2-3.1
			C372.5,97.5,367.8,89,360.1,84.6z M332.7,102.7c0,0,2-10.3,13.4-10.3c12.1,0,14.2,10.3,14.2,10.3H332.7z" style="fill:url(#SVGID_00000050627022234909940810000002390834557620966821_);"></path>
	</g>
</g>
</svg>
