<svg width="151" height="25" viewBox="0 0 151 25" fill="none" xmlns="http://www.w3.org/2000/svg">
<path d="M35.6756 10.865C32.1873 10.3204 31.9137 9.87794 31.9137 9.33338C31.9137 8.55057 33.0081 8.07408 34.6838 8.07408C36.5647 8.07408 38.0353 8.92496 38.5482 10.2523C38.5824 10.3204 38.6508 10.3885 38.7534 10.3544L41.7287 9.53759C41.7629 9.53759 41.7971 9.50356 41.8313 9.46952C41.8655 9.43549 41.8655 9.36742 41.8313 9.33338C41.1132 6.84881 38.1037 5.04495 34.6838 5.04495C30.9219 5.04495 28.4254 6.78074 28.4254 9.36741C28.4254 11.852 30.2722 13.0772 35.2652 13.826C37.8643 14.2004 38.7876 14.6088 38.7876 15.4597C38.7876 16.2425 37.5223 16.753 35.5046 16.753C33.179 16.753 31.7085 15.8341 31.2297 14.0302C31.1955 13.9281 31.1271 13.8941 31.0245 13.8941L27.9466 14.6088C27.844 14.6429 27.8098 14.7109 27.8098 14.813C28.4254 17.8422 31.4349 19.7822 35.5046 19.7822C39.5742 19.7822 42.2759 18.0464 42.2759 15.4597C42.2759 12.873 40.4292 11.6137 35.6756 10.865Z" fill="white"/>
<path d="M82.1174 5.04495C80.6811 5.07899 78.6634 5.62355 77.6374 7.05303C77.6032 7.05303 77.6032 7.01899 77.6032 7.01899V5.58952C77.6032 5.48741 77.5348 5.41934 77.4322 5.41934H74.2859C74.1833 5.41934 74.1149 5.48741 74.1149 5.58952V19.2036C74.1149 19.3057 74.1833 19.3737 74.2859 19.3737H77.5348C77.6374 19.3737 77.7058 19.3057 77.7058 19.2036V11.7839C77.7058 9.70777 79.2789 8.31233 81.6045 8.31233C83.8616 8.31233 85.1953 9.60566 85.1953 11.7839V19.2036C85.1953 19.3057 85.2637 19.3737 85.3663 19.3737H88.6152C88.7178 19.3737 88.7862 19.3057 88.7862 19.2036V11.2734C88.7862 9.53759 88.1706 7.97198 87.0763 6.88285C85.8793 5.69162 84.0326 5.01092 82.1174 5.04495Z" fill="white"/>
<path d="M118.334 5.04495C113.888 5.04495 110.571 8.21022 110.571 12.3965C110.571 16.5829 113.922 19.7481 118.334 19.7481C120.523 19.7481 122.506 18.9994 123.908 17.638C125.31 16.2765 126.097 14.4387 126.097 12.3965C126.131 8.21022 122.78 5.04495 118.334 5.04495ZM118.334 16.5488C115.872 16.5488 114.162 14.8471 114.162 12.3965C114.162 9.94601 115.872 8.24426 118.334 8.24426C120.796 8.24426 122.506 9.94601 122.506 12.3965C122.506 14.8471 120.796 16.5488 118.334 16.5488Z" fill="white"/>
<path d="M143.915 5.04495C142.102 5.04495 140.495 5.72565 139.366 6.95092C138.409 5.79372 136.63 5.04495 134.955 5.04495C133.313 5.04495 131.535 5.92987 130.953 7.08706H130.919L130.885 7.05303V5.58951C130.885 5.48741 130.816 5.41934 130.714 5.41934H127.739C127.636 5.41934 127.568 5.48741 127.568 5.58951V19.2036C127.568 19.3057 127.636 19.3737 127.739 19.3737H130.919C131.022 19.3737 131.09 19.3057 131.09 19.2036V11.4095C131.09 9.50356 132.321 8.24426 134.168 8.24426C135.946 8.24426 137.143 9.53759 137.143 11.4095V19.2036C137.143 19.3057 137.212 19.3737 137.314 19.3737H140.392C140.495 19.3737 140.563 19.3057 140.563 19.2036V11.4095C140.563 9.46952 141.726 8.24426 143.607 8.24426C145.454 8.24426 146.616 9.46952 146.616 11.4095V19.2036C146.616 19.3057 146.685 19.3737 146.787 19.3737H149.934C150.036 19.3737 150.105 19.3057 150.105 19.2036V10.7969C150.173 7.39338 147.608 5.04495 143.915 5.04495Z" fill="white"/>
<path d="M92.5139 19.578C93.7038 19.578 94.6684 18.618 94.6684 17.4337C94.6684 16.2495 93.7038 15.2895 92.5139 15.2895C91.324 15.2895 90.3593 16.2495 90.3593 17.4337C90.3593 18.618 91.324 19.578 92.5139 19.578Z" fill="white"/>
<path d="M57.7338 14.6769L54.6901 13.826C54.5875 13.792 54.5191 13.8601 54.4849 13.9281C53.9035 15.6299 52.6381 16.5488 50.7572 16.5488C48.3975 16.5488 46.756 14.8471 46.756 12.3965C46.756 9.94601 48.3975 8.24426 50.7572 8.24426C52.3987 8.24426 53.6983 9.02706 54.3139 10.4565C54.3481 10.5246 54.4507 10.5927 54.5191 10.5586L57.597 9.6397C57.6996 9.60566 57.7338 9.50355 57.6996 9.40145C56.7078 6.71267 54.0403 5.01092 50.7572 5.01092C46.414 5.01092 43.1309 8.17619 43.1309 12.3625C43.1309 16.5488 46.414 19.7141 50.7572 19.7141C54.2455 19.7141 57.0498 17.8081 57.8705 14.8471C57.9047 14.813 57.8364 14.7109 57.7338 14.6769Z" fill="white"/>
<path d="M65.7021 5.04495C62.3506 5.04495 59.6489 6.81478 58.8965 9.43549C58.8623 9.53759 58.9307 9.60566 58.9991 9.6397L62.0428 10.5586C62.1454 10.5927 62.2138 10.5246 62.248 10.4565C62.7268 8.99303 63.9921 8.14215 65.7363 8.14215C67.3094 8.14215 68.267 8.72075 68.267 9.60566C68.267 10.0822 68.0276 10.5586 65.0181 10.9671C60.6406 11.6137 58.8623 12.9411 58.8623 15.5618C58.8623 18.1144 60.9142 19.7822 64.1289 19.7822C65.873 19.7822 67.6514 19.1015 68.7115 17.9783V19.2036C68.7115 19.3057 68.7799 19.3737 68.8825 19.3737H71.8578C71.9604 19.3737 72.0288 19.3057 72.0288 19.2036V10.2183C72.063 7.01899 69.6007 5.04495 65.7021 5.04495ZM68.5747 14.2344C68.5747 15.5618 66.7964 16.6509 64.6419 16.6509C62.3506 16.6509 62.3506 15.732 62.3506 15.3576C62.3506 14.5067 63.2397 14.0302 65.5995 13.6218C67.2068 13.3495 68.0276 13.0772 68.5063 12.7369H68.5405C68.5405 12.7369 68.5405 12.7369 68.5747 12.7369C68.5747 12.7369 68.6089 12.7369 68.6089 12.7709V14.2344H68.5747Z" fill="white"/>
<path d="M109.579 14.6769L106.535 13.826C106.433 13.792 106.364 13.8601 106.33 13.9281C105.749 15.6299 104.483 16.5488 102.603 16.5488C100.243 16.5488 98.6013 14.8471 98.6013 12.3965C98.6013 9.94601 100.243 8.24426 102.603 8.24426C104.244 8.24426 105.544 9.02706 106.159 10.4565C106.193 10.5246 106.296 10.5927 106.364 10.5586L109.442 9.6397C109.545 9.60566 109.579 9.50355 109.545 9.40145C108.553 6.71267 105.886 5.01092 102.603 5.01092C98.2593 5.01092 94.9762 8.17619 94.9762 12.3625C94.9762 16.5488 98.2593 19.7141 102.603 19.7141C106.091 19.7141 108.895 17.8081 109.716 14.8471C109.716 14.813 109.647 14.7109 109.579 14.6769Z" fill="white"/>
<path d="M9.95809 6.57653C9.6845 6.84881 9.6845 7.32531 9.95809 7.59759C10.2317 7.86987 10.7105 7.86987 10.9841 7.59759C11.2576 7.32531 11.2576 6.84881 10.9841 6.57653C10.7105 6.30425 10.2659 6.30425 9.95809 6.57653Z" fill="white"/>
<path d="M12.1126 6.27022C12.352 6.03197 12.352 5.69162 12.1126 5.45337C11.8732 5.21513 11.5312 5.21513 11.2918 5.45337C11.0525 5.69162 11.0525 6.03197 11.2918 6.27022C11.5312 6.50846 11.8732 6.50846 12.1126 6.27022Z" fill="white"/>
<path d="M12.8992 5.11302C13.1447 5.11302 13.3438 4.91493 13.3438 4.67057C13.3438 4.42621 13.1447 4.22811 12.8992 4.22811C12.6536 4.22811 12.4546 4.42621 12.4546 4.67057C12.4546 4.91493 12.6536 5.11302 12.8992 5.11302Z" fill="white"/>
<path d="M8.72695 5.35127C8.45336 5.62355 8.45336 6.10004 8.72695 6.37232C9.00054 6.6446 9.47932 6.6446 9.75291 6.37232C10.0265 6.10004 10.0265 5.62355 9.75291 5.35127C9.47932 5.07899 9.03474 5.07899 8.72695 5.35127Z" fill="white"/>
<path d="M10.8473 5.04495C11.0867 4.80671 11.0867 4.46635 10.8473 4.22811C10.6079 3.98986 10.2659 3.98986 10.0265 4.22811C9.78711 4.46635 9.78711 4.80671 10.0265 5.04495C10.2659 5.24916 10.6079 5.24916 10.8473 5.04495Z" fill="white"/>
<path d="M11.5996 3.85373C11.8452 3.85373 12.0442 3.65563 12.0442 3.41127C12.0442 3.1669 11.8452 2.96881 11.5996 2.96881C11.3541 2.96881 11.1551 3.1669 11.1551 3.41127C11.1551 3.65563 11.3541 3.85373 11.5996 3.85373Z" fill="white"/>
<path d="M12.2152 8.82285C12.4888 8.55057 12.4888 8.07408 12.2152 7.8018C11.9416 7.52952 11.4629 7.52952 11.1893 7.8018C10.9157 8.07408 10.9157 8.55057 11.1893 8.82285C11.4971 9.09513 11.9416 9.09513 12.2152 8.82285Z" fill="white"/>
<path d="M13.378 7.52951C13.6174 7.29127 13.6174 6.95092 13.378 6.71267C13.1386 6.47443 12.7966 6.47443 12.5572 6.71267C12.3178 6.95092 12.3178 7.29127 12.5572 7.52951C12.7624 7.76776 13.1386 7.76776 13.378 7.52951Z" fill="white"/>
<path d="M14.1987 6.40636C14.4443 6.40636 14.6433 6.20826 14.6433 5.9639C14.6433 5.71954 14.4443 5.52145 14.1987 5.52145C13.9532 5.52145 13.7542 5.71954 13.7542 5.9639C13.7542 6.20826 13.9532 6.40636 14.1987 6.40636Z" fill="white"/>
<path d="M8.52174 5.14706C8.79533 4.87477 8.79533 4.39828 8.52174 4.126C8.24815 3.85372 7.76937 3.85372 7.49578 4.126C7.22219 4.39828 7.22219 4.87477 7.49578 5.14706C7.80357 5.41934 8.24815 5.41934 8.52174 5.14706Z" fill="white"/>
<path d="M9.58192 3.78565C9.82131 3.5474 9.82131 3.20705 9.58192 2.96881C9.34253 2.73056 9.00054 2.73056 8.76115 2.96881C8.52176 3.20705 8.52176 3.5474 8.76115 3.78565C9.00054 3.98986 9.34253 3.98986 9.58192 3.78565Z" fill="white"/>
<path d="M10.3001 2.56039C10.5456 2.56039 10.7447 2.3623 10.7447 2.11793C10.7447 1.87357 10.5456 1.67548 10.3001 1.67548C10.0545 1.67548 9.8555 1.87357 9.8555 2.11793C9.8555 2.3623 10.0545 2.56039 10.3001 2.56039Z" fill="white"/>
<path d="M11.4628 1.13091C11.6139 1.13091 11.7364 1.00901 11.7364 0.85863C11.7364 0.708253 11.6139 0.586349 11.4628 0.586349C11.3117 0.586349 11.1892 0.708253 11.1892 0.85863C11.1892 1.00901 11.3117 1.13091 11.4628 1.13091Z" fill="white"/>
<path d="M12.9676 2.39021C13.0702 2.28811 13.0702 2.0839 12.9676 1.98179C12.865 1.87969 12.6598 1.87969 12.5572 1.98179C12.4546 2.0839 12.4546 2.28811 12.5572 2.39021C12.694 2.49232 12.865 2.49232 12.9676 2.39021Z" fill="white"/>
<path d="M14.3013 3.68355C14.4039 3.58144 14.4039 3.37723 14.3013 3.27513C14.1987 3.17302 13.9935 3.17302 13.8909 3.27513C13.7883 3.37723 13.7883 3.58144 13.8909 3.68355C13.9935 3.81969 14.1987 3.81969 14.3013 3.68355Z" fill="white"/>
<path d="M15.6351 5.01092C15.7377 4.90881 15.7377 4.7046 15.6351 4.6025C15.5325 4.50039 15.3273 4.50039 15.2247 4.6025C15.1221 4.7046 15.1221 4.90881 15.2247 5.01092C15.3273 5.11302 15.4983 5.11302 15.6351 5.01092Z" fill="white"/>
<path d="M13.4464 10.0481C13.72 9.77584 13.72 9.29935 13.4464 9.02706C13.1728 8.75478 12.694 8.75478 12.4204 9.02706C12.1468 9.29935 12.1468 9.77584 12.4204 10.0481C12.7282 10.3204 13.1728 10.3204 13.4464 10.0481Z" fill="white"/>
<path d="M14.6433 8.78882C14.8827 8.55057 14.8827 8.21022 14.6433 7.97197C14.4039 7.73373 14.0619 7.73373 13.8225 7.97197C13.5832 8.21022 13.5832 8.55057 13.8225 8.78882C14.0277 9.02706 14.4039 9.02706 14.6433 8.78882Z" fill="white"/>
<path d="M15.4983 7.69969C15.7438 7.69969 15.9429 7.5016 15.9429 7.25724C15.9429 7.01288 15.7438 6.81478 15.4983 6.81478C15.2528 6.81478 15.0537 7.01288 15.0537 7.25724C15.0537 7.5016 15.2528 7.69969 15.4983 7.69969Z" fill="white"/>
<path d="M16.9346 6.33829C17.0372 6.23618 17.0372 6.03197 16.9346 5.92987C16.832 5.82776 16.6268 5.82776 16.5242 5.92987C16.4216 6.03197 16.4216 6.23618 16.5242 6.33829C16.6268 6.44039 16.832 6.44039 16.9346 6.33829Z" fill="white"/>
<path d="M12.523 18.2166C12.7966 17.9443 12.7966 17.4678 12.523 17.1955C12.2494 16.9232 11.7706 16.9232 11.497 17.1955C11.2234 17.4678 11.2234 17.9443 11.497 18.2166C11.8048 18.4888 12.2494 18.4888 12.523 18.2166Z" fill="white"/>
<path d="M10.4027 18.5229C10.1633 18.7611 10.1633 19.1015 10.4027 19.3397C10.6421 19.578 10.9841 19.578 11.2235 19.3397C11.4628 19.1015 11.4628 18.7611 11.2235 18.5229C10.9841 18.2846 10.6079 18.2846 10.4027 18.5229Z" fill="white"/>
<path d="M9.61609 20.565C9.86163 20.565 10.0607 20.3669 10.0607 20.1225C10.0607 19.8782 9.86163 19.6801 9.61609 19.6801C9.37055 19.6801 9.17151 19.8782 9.17151 20.1225C9.17151 20.3669 9.37055 20.565 9.61609 20.565Z" fill="white"/>
<path d="M13.7542 19.4418C14.0278 19.1695 14.0278 18.693 13.7542 18.4208C13.4806 18.1485 13.0018 18.1485 12.7282 18.4208C12.4546 18.693 12.4546 19.1695 12.7282 19.4418C13.036 19.7141 13.4806 19.7141 13.7542 19.4418Z" fill="white"/>
<path d="M11.668 19.7822C11.4286 20.0204 11.4286 20.3608 11.668 20.599C11.9074 20.8373 12.2494 20.8373 12.4888 20.599C12.7282 20.3608 12.7282 20.0204 12.4888 19.7822C12.2494 19.5439 11.8732 19.5439 11.668 19.7822Z" fill="white"/>
<path d="M10.8815 21.8583C11.127 21.8583 11.3261 21.6602 11.3261 21.4159C11.3261 21.1715 11.127 20.9734 10.8815 20.9734C10.6359 20.9734 10.4369 21.1715 10.4369 21.4159C10.4369 21.6602 10.6359 21.8583 10.8815 21.8583Z" fill="white"/>
<path d="M10.3001 15.9702C10.0265 16.2425 10.0265 16.719 10.3001 16.9913C10.5737 17.2636 11.0524 17.2636 11.326 16.9913C11.5996 16.719 11.5996 16.2425 11.326 15.9702C11.0182 15.6979 10.5737 15.6979 10.3001 15.9702Z" fill="white"/>
<path d="M9.13731 17.2636C8.89792 17.5018 8.89792 17.8422 9.13731 18.0804C9.3767 18.3187 9.71869 18.3187 9.95808 18.0804C10.1975 17.8422 10.1975 17.5018 9.95808 17.2636C9.71869 17.0253 9.3767 17.0253 9.13731 17.2636Z" fill="white"/>
<path d="M8.31656 19.2716C8.5621 19.2716 8.76114 19.0735 8.76114 18.8292C8.76114 18.5848 8.5621 18.3867 8.31656 18.3867C8.07103 18.3867 7.87198 18.5848 7.87198 18.8292C7.87198 19.0735 8.07103 19.2716 8.31656 19.2716Z" fill="white"/>
<path d="M13.9936 19.646C13.72 19.9183 13.72 20.3948 13.9936 20.6671C14.2671 20.9394 14.7459 20.9394 15.0195 20.6671C15.2931 20.3948 15.2931 19.9183 15.0195 19.646C14.7117 19.3737 14.2671 19.3737 13.9936 19.646Z" fill="white"/>
<path d="M12.9334 21.0415C12.694 21.2797 12.694 21.6201 12.9334 21.8583C13.1728 22.0966 13.5148 22.0966 13.7542 21.8583C13.9935 21.6201 13.9935 21.2797 13.7542 21.0415C13.5148 20.8032 13.1386 20.8032 12.9334 21.0415Z" fill="white"/>
<path d="M12.181 23.1176C12.4265 23.1176 12.6256 22.9195 12.6256 22.6752C12.6256 22.4308 12.4265 22.2327 12.181 22.2327C11.9355 22.2327 11.7364 22.4308 11.7364 22.6752C11.7364 22.9195 11.9355 23.1176 12.181 23.1176Z" fill="white"/>
<path d="M10.8473 23.7302C10.7447 23.8323 10.7447 24.0366 10.8473 24.1387C10.9499 24.2408 11.1551 24.2408 11.2577 24.1387C11.3603 24.0366 11.3603 23.8323 11.2577 23.7302C11.1551 23.6281 10.9499 23.6281 10.8473 23.7302Z" fill="white"/>
<path d="M9.5135 22.4369C9.4109 22.539 9.4109 22.7432 9.5135 22.8453C9.6161 22.9474 9.82129 22.9474 9.92388 22.8453C10.0265 22.7432 10.0265 22.539 9.92388 22.4369C9.82129 22.3008 9.6503 22.3008 9.5135 22.4369Z" fill="white"/>
<path d="M8.21397 21.1095C8.11137 21.2116 8.11137 21.4159 8.21397 21.518C8.31657 21.6201 8.52176 21.6201 8.62435 21.518C8.72695 21.4159 8.72695 21.2116 8.62435 21.1095C8.48756 21.0074 8.31657 21.0074 8.21397 21.1095Z" fill="white"/>
<path d="M6.8802 19.7822C6.7776 19.8843 6.7776 20.0885 6.8802 20.1906C6.9828 20.2927 7.18799 20.2927 7.29059 20.1906C7.39318 20.0885 7.39318 19.8843 7.29059 19.7822C7.18799 19.6801 6.9828 19.6801 6.8802 19.7822Z" fill="white"/>
<path d="M9.06893 14.745C8.79534 15.0172 8.79534 15.4937 9.06893 15.766C9.34252 16.0383 9.8213 16.0383 10.0949 15.766C10.3685 15.4937 10.3685 15.0172 10.0949 14.745C9.78711 14.4727 9.34252 14.4727 9.06893 14.745Z" fill="white"/>
<path d="M7.87196 16.0043C7.63257 16.2425 7.63257 16.5829 7.87196 16.8211C8.11135 17.0594 8.45334 17.0594 8.69273 16.8211C8.93212 16.5829 8.93212 16.2425 8.69273 16.0043C8.45334 15.8001 8.11135 15.8001 7.87196 16.0043Z" fill="white"/>
<path d="M7.017 17.9783C7.26254 17.9783 7.46159 17.7802 7.46159 17.5358C7.46159 17.2915 7.26254 17.0934 7.017 17.0934C6.77147 17.0934 6.57242 17.2915 6.57242 17.5358C6.57242 17.7802 6.77147 17.9783 7.017 17.9783Z" fill="white"/>
<path d="M5.54646 18.4888C5.44386 18.5909 5.44386 18.7951 5.54646 18.8973C5.64906 18.9994 5.85425 18.9994 5.95685 18.8973C6.05944 18.7951 6.05944 18.5909 5.95685 18.4888C5.85425 18.3527 5.68325 18.3527 5.54646 18.4888Z" fill="white"/>
<path d="M14.3013 9.36741L12.2836 11.3755C12.6256 11.0351 12.6256 10.4906 12.2836 10.1502C11.9416 9.80987 11.3944 9.80987 11.0525 10.1502C11.3944 9.80987 11.3944 9.26531 11.0525 8.92496C10.7105 8.58461 10.1633 8.58461 9.8213 8.92496C10.1633 8.58461 10.1633 8.04004 9.8213 7.69969C9.47931 7.35934 8.93213 7.35934 8.59014 7.69969C8.93213 7.35934 8.93213 6.81478 8.59014 6.47443C8.24816 6.13408 7.70098 6.13408 7.35899 6.47443C7.70098 6.13408 7.70098 5.58952 7.35899 5.24916C7.017 4.90881 6.46982 4.90881 6.12784 5.24916L2.02399 9.33338C0.348247 11.0011 0.348247 13.7239 2.02399 15.3916C3.69972 17.0594 6.43562 17.0594 8.11136 15.3916L10.1291 13.3836C9.7871 13.7239 9.7871 14.2685 10.1291 14.6088C10.4711 14.9492 11.0183 14.9492 11.3602 14.6088C11.0183 14.9492 11.0183 15.4937 11.3602 15.8341C11.7022 16.1744 12.2494 16.1744 12.5914 15.8341C12.2494 16.1744 12.2494 16.719 12.5914 17.0594C12.9334 17.3997 13.4806 17.3997 13.8226 17.0594C13.4806 17.3997 13.4806 17.9443 13.8226 18.2846C14.1645 18.625 14.7117 18.625 15.0537 18.2846C14.7117 18.625 14.7117 19.1695 15.0537 19.5099C15.3957 19.8502 15.9429 19.8502 16.2849 19.5099L20.3887 15.4257C22.0645 13.7579 22.0645 11.0351 20.3887 9.36741C18.713 7.69969 15.9771 7.69969 14.3013 9.36741ZM6.36723 9.1632C6.26463 9.26531 6.05944 9.26531 5.95684 9.1632C5.85425 9.0611 5.85425 8.85689 5.95684 8.75478C6.05944 8.65268 6.26463 8.65268 6.36723 8.75478C6.46982 8.89092 6.46982 9.0611 6.36723 9.1632ZM6.53822 7.35934C6.40142 7.2232 6.40142 6.98495 6.53822 6.84881C6.67501 6.71267 6.91441 6.71267 7.0512 6.84881C7.188 6.98495 7.188 7.2232 7.0512 7.35934C6.91441 7.49548 6.67501 7.49548 6.53822 7.35934ZM7.56418 10.3885C7.46159 10.4906 7.25639 10.4906 7.1538 10.3885C7.0512 10.2864 7.0512 10.0822 7.1538 9.98005C7.25639 9.87794 7.46159 9.87794 7.56418 9.98005C7.70098 10.0822 7.70098 10.2864 7.56418 10.3885ZM7.76937 8.58461C7.63258 8.44847 7.63258 8.21022 7.76937 8.07408C7.90617 7.93794 8.14556 7.93794 8.28235 8.07408C8.41915 8.21022 8.41915 8.44847 8.28235 8.58461C8.14556 8.72075 7.90617 8.72075 7.76937 8.58461ZM8.79534 11.6137C8.69274 11.7158 8.48755 11.7158 8.38495 11.6137C8.28236 11.5116 8.28236 11.3074 8.38495 11.2053C8.48755 11.1032 8.69274 11.1032 8.79534 11.2053C8.89793 11.3074 8.89793 11.4776 8.79534 11.6137ZM9.47931 9.80987C9.34252 9.94601 9.10312 9.94601 8.96633 9.80987C8.82953 9.67373 8.82953 9.43549 8.96633 9.29935C9.10312 9.16321 9.34252 9.16321 9.47931 9.29935C9.61611 9.43549 9.61611 9.67373 9.47931 9.80987ZM10.7105 11.0011C10.5737 11.1372 10.3343 11.1372 10.1975 11.0011C10.0607 10.865 10.0607 10.6267 10.1975 10.4906C10.3343 10.3544 10.5737 10.3544 10.7105 10.4906C10.8473 10.6608 10.8473 10.865 10.7105 11.0011ZM12.2836 14.3025C12.1468 14.4387 11.9074 14.4387 11.7706 14.3025C11.6338 14.1664 11.6338 13.9281 11.7706 13.792C11.9074 13.6558 12.1468 13.6558 12.2836 13.792C12.4546 13.9281 12.4546 14.1664 12.2836 14.3025ZM13.5148 15.5278C13.378 15.6639 13.1386 15.6639 13.0018 15.5278C12.865 15.3916 12.865 15.1534 13.0018 15.0172C13.1386 14.8811 13.378 14.8811 13.5148 15.0172C13.6516 15.1534 13.6516 15.3576 13.5148 15.5278ZM13.72 13.6218C13.6174 13.5197 13.6174 13.3155 13.72 13.2134C13.8226 13.1113 14.0277 13.1113 14.1303 13.2134C14.2329 13.3155 14.2329 13.5197 14.1303 13.6218C13.9935 13.7239 13.8226 13.7239 13.72 13.6218ZM14.7459 16.719C14.6091 16.8551 14.3697 16.8551 14.2329 16.719C14.0961 16.5829 14.0961 16.3446 14.2329 16.2085C14.3697 16.0723 14.6091 16.0723 14.7459 16.2085C14.8827 16.3446 14.8827 16.5829 14.7459 16.719ZM14.9169 14.813C14.8143 14.7109 14.8143 14.5067 14.9169 14.4046C15.0195 14.3025 15.2247 14.3025 15.3273 14.4046C15.4299 14.5067 15.4299 14.7109 15.3273 14.813C15.2247 14.9492 15.0537 14.9492 14.9169 14.813ZM15.9771 17.9443C15.8403 18.0804 15.6009 18.0804 15.4641 17.9443C15.3273 17.8081 15.3273 17.5699 15.4641 17.4337C15.6009 17.2976 15.8403 17.2976 15.9771 17.4337C16.1139 17.5699 16.1139 17.8081 15.9771 17.9443ZM16.5585 16.0383C16.4559 16.1404 16.2507 16.1404 16.1481 16.0383C16.0455 15.9362 16.0455 15.732 16.1481 15.6299C16.2507 15.5278 16.4559 15.5278 16.5585 15.6299C16.661 15.732 16.661 15.9362 16.5585 16.0383Z" fill="white"/>
</svg>
