<svg width="114" height="40" viewBox="0 0 114 40" fill="none" xmlns="http://www.w3.org/2000/svg">
<path d="M112.32 17.7216C111.504 16.9959 110.431 16.5747 109.201 16.5747C108.683 16.5747 108.2 16.6623 107.768 16.7853H107.766C106.996 17.0359 106.741 17.5263 106.833 18.1413C106.925 18.7562 107.482 19.1298 108.094 19.0222C108.277 18.9837 108.466 18.9591 108.666 18.9591C110.24 18.9591 111.342 20.1936 111.344 21.7587C111.344 23.3237 110.231 24.5059 108.666 24.5059C107.101 24.5059 105.969 23.3221 105.969 21.7556V17.9752C105.94 17.3065 105.39 16.7807 104.721 16.7807H104.598C103.908 16.7807 103.35 17.3403 103.35 18.029V29.47C103.35 30.1987 103.94 30.789 104.669 30.789C105.397 30.789 105.969 30.1987 105.969 29.47V25.6282C106.337 26.0463 106.862 26.3799 107.487 26.5982C107.971 26.7812 108.537 26.8903 109.21 26.8903C112.011 26.8903 114 24.758 114 21.751C114 20.0691 113.37 18.6455 112.32 17.7216Z" fill="white"/>
<path d="M71.4616 26.689C72.2319 26.4384 72.4871 25.948 72.3948 25.333C72.3026 24.7181 71.7461 24.3445 71.1342 24.4521C70.9512 24.4906 70.7621 24.5152 70.5623 24.5152C68.9865 24.5152 67.8842 23.2792 67.8842 21.7141C67.8842 20.1491 68.9865 18.953 70.5623 18.953C72.1381 18.953 73.2296 20.1368 73.2296 21.7141V25.9065C73.2296 27.5545 72.0043 28.6368 70.1288 28.6368C69.3124 28.6368 68.556 28.3586 67.8443 27.8589C67.3569 27.5176 66.6989 27.5591 66.2746 27.9758C65.7304 28.5092 65.8042 29.4055 66.4268 29.8452C67.4891 30.5954 68.8082 31.0151 70.1288 31.0151C73.6308 31.0151 75.8354 28.9135 75.8462 25.6374L75.8523 18.0414C75.8539 17.3511 75.305 16.79 74.6147 16.79H74.5287C73.8599 16.79 73.3095 17.3173 73.2803 17.9845C72.6208 17.1605 71.6015 16.584 70.015 16.584C67.2139 16.584 65.2246 18.7163 65.2246 21.7234C65.2246 24.7304 67.2124 26.8842 70.015 26.8842C70.5377 26.8842 71.022 26.8135 71.457 26.689" fill="white"/>
<path d="M48.5348 22.8791C49.0714 22.4902 49.8185 22.5671 50.2567 23.0652C50.9639 23.8677 51.9708 24.3704 53.2053 24.3704C54.5428 24.3704 55.602 23.7232 55.602 22.8177C55.602 21.9122 54.5628 21.3987 52.8963 20.8744C50.2121 20.0289 48.0214 19.2064 48.0214 16.5114C48.0214 13.8165 50.6026 12.5005 52.9686 12.5005C54.8303 12.5005 56.2693 13.303 57.2516 14.3453C57.7928 14.9187 57.7067 15.8365 57.0656 16.2931L57.021 16.3254C56.4983 16.6975 55.7712 16.639 55.3361 16.1655C54.7381 15.5137 53.934 15.0094 52.8963 15.0094C51.8586 15.0094 50.8593 15.5859 50.8593 16.5007C50.8593 17.6214 51.877 17.7859 53.6265 18.4039C56.2493 19.3294 58.4292 20.0397 58.4292 22.7961C58.4292 25.5526 55.662 26.8793 53.173 26.8793C51.0807 26.8793 49.3604 26.0307 48.3058 24.7655C47.8231 24.1859 47.9214 23.3219 48.5333 22.8791H48.5348Z" fill="white"/>
<path d="M61.9983 12.1133C62.8315 12.1564 63.4096 12.7483 63.4219 13.6046C63.4342 14.4609 62.7393 15.145 61.903 15.145C61.0067 15.145 60.3887 14.5285 60.3887 13.6338C60.3887 12.7713 61.1389 12.0688 61.9998 12.1133H61.9983ZM60.5931 25.353V18.1228C60.5931 17.3926 61.185 16.8007 61.9153 16.8007C62.6455 16.8007 63.2374 17.3926 63.2374 18.1228V25.353C63.2374 26.0832 62.6455 26.6751 61.9153 26.6751C61.185 26.6751 60.5931 26.0832 60.5931 25.353Z" fill="white"/>
<path d="M77.8652 25.3576V17.9953C77.8652 17.3342 78.4002 16.7992 79.0613 16.7992H79.2319C79.8715 16.7992 80.3973 17.3019 80.4265 17.9414C80.9399 17.2527 82.0007 16.5947 83.4704 16.5947C85.7534 16.5947 87.3691 18.0967 87.3691 20.4719V25.3576C87.3691 26.0848 86.7803 26.6736 86.0532 26.6736C85.326 26.6736 84.7372 26.0848 84.7372 25.3576V21.1514C84.7372 19.7832 83.8532 19.0437 82.691 19.0437C81.5287 19.0437 80.5003 19.7847 80.5003 21.1514V25.3576C80.5003 26.0848 79.9114 26.6736 79.1843 26.6736C78.4571 26.6736 77.8683 26.0848 77.8683 25.3576H77.8652Z" fill="white"/>
<path d="M89.3574 21.3664V14.0902C89.3574 13.3261 89.977 12.7065 90.741 12.7065C91.5051 12.7065 92.1247 13.3261 92.1247 14.0902V21.3049C92.1247 23.1974 93.4821 24.3904 95.3331 24.3904C97.1841 24.3904 98.5416 23.1974 98.5416 21.3049V14.0902C98.5416 13.3261 99.1611 12.7065 99.9252 12.7065C100.689 12.7065 101.309 13.3261 101.309 14.0902V21.3664C101.309 24.7194 98.9121 26.8794 95.3331 26.8794C91.7542 26.8794 89.3574 24.7194 89.3574 21.3664Z" fill="white"/>
<path d="M12.9603 19.6069C12.1099 19.6069 11.4198 18.9176 11.4198 18.0664C11.4198 17.4856 11.7419 16.9799 12.2167 16.7178C11.8379 16.5776 11.4281 16.5 11 16.5C9.06724 16.5 7.5 18.0672 7.5 20C7.5 21.9328 9.06724 23.5 11 23.5C12.9328 23.5 14.5 21.9328 14.5 20C14.5 19.5886 14.4282 19.1938 14.298 18.8267C14.0327 19.2915 13.5336 19.6061 12.9603 19.6061V19.6069Z" fill="white"/>
<path d="M18.5166 20.4674C17.6358 20.1738 16.6851 20.6492 16.3915 21.5291C15.6747 23.6756 13.4415 25.1753 10.9603 25.1753C7.83323 25.1753 5.28961 22.8759 5.28961 20.0489C5.28961 17.222 7.83323 14.9226 10.9603 14.9226C13.4368 14.9226 15.6691 16.4185 16.3887 18.5604C16.6842 19.4403 17.6367 19.9138 18.5166 19.6183C19.3965 19.3229 19.87 18.3703 19.5745 17.4904C18.5931 14.5693 16.0699 12.4395 12.9969 11.7787L15.4156 9.58086C15.4156 9.58086 19.6817 5.80038 18.4607 4.45074C17.2397 3.1011 13.1637 6.73711 13.1637 6.73711L9.45223 9.7943C9.45223 9.7943 15.3625 2.56796 13.476 1.3516C12.0975 0.463342 8.01125 5.69133 8.01125 5.69133L5.1992 9.3031C5.1992 9.3031 6.77533 4.98668 6.95708 3.5168C6.95708 3.5168 7.2106 2.04973 6.28319 1.88009C5.33248 1.70579 4.75274 2.3368 3.89803 4.1124C3.89803 4.1124 1.0403 10.0189 0.219144 15.4007C-0.698945 21.4247 1.40567 24.6646 3.96327 26.4085C5.72209 27.7245 8.02803 28.5243 10.539 28.5261C10.6788 28.5326 10.8196 28.5354 10.9603 28.5354C14.9291 28.5354 18.3927 26.1475 19.5792 22.5926C19.8728 21.7127 19.3974 20.761 18.5176 20.4674H18.5166Z" fill="white"/>
<path d="M30.9642 19.6094C30.1138 19.6094 29.4237 18.9201 29.4237 18.0688C29.4237 17.488 29.7458 16.9823 30.2206 16.7203C29.8418 16.5801 29.432 16.5024 29.0039 16.5024C27.0711 16.5024 25.5039 18.0697 25.5039 20.0024C25.5039 21.9352 27.0711 23.5024 29.0039 23.5024C30.9367 23.5024 32.5039 21.9352 32.5039 20.0024C32.5039 19.591 32.4321 19.1963 32.302 18.8291C32.0366 19.2939 31.5375 19.6085 30.9642 19.6085V19.6094Z" fill="white"/>
<path d="M21.4833 19.6202C22.3642 19.9139 23.3149 19.4385 23.6085 18.5586C24.3252 16.4121 26.5585 14.9124 29.0396 14.9124C32.1667 14.9124 34.7104 17.2118 34.7104 20.0387C34.7104 22.8657 32.1667 25.1651 29.0396 25.1651C26.5631 25.1651 24.3308 23.6692 23.6113 21.5273C23.3158 20.6474 22.3632 20.1739 21.4833 20.4694C20.6035 20.7648 20.13 21.7174 20.4254 22.5973C21.4069 25.5184 23.93 27.6482 27.0031 28.309L24.5843 30.5068C24.5843 30.5068 20.3183 34.2873 21.5393 35.6369C22.7603 36.9866 26.8362 33.3506 26.8362 33.3506L30.5477 30.2934C30.5477 30.2934 24.6375 37.5197 26.524 38.7361C27.9025 39.6243 31.9887 34.3964 31.9887 34.3964L34.8008 30.7846C34.8008 30.7846 33.2246 35.101 33.0429 36.5709C33.0429 36.5709 32.7894 38.038 33.7168 38.2076C34.6675 38.3819 35.2472 37.7509 36.1019 35.9753C36.1019 35.9753 38.9597 30.0688 39.7808 24.687C40.6989 18.663 38.5943 15.4231 36.0367 13.6792C34.2779 12.3631 31.9719 11.5634 29.4609 11.5616C29.3211 11.555 29.1804 11.5522 29.0396 11.5522C25.0709 11.5522 21.6073 13.9402 20.4208 17.4951C20.1272 18.375 20.6025 19.3266 21.4824 19.6202H21.4833Z" fill="white"/>
</svg>
