<svg width="144" height="24" viewBox="0 0 144 24" fill="none" xmlns="http://www.w3.org/2000/svg">
<path fill-rule="evenodd" clip-rule="evenodd" d="M107.407 8.92203L103.53 12.9835L110.374 23.2326V23.6803H106.824L101.228 15.5737H101.084L98.19 18.3878V23.6803H94.9122V0H98.19V14.1986H98.3499L106.041 6.21998L113.914 6.21984V2.97401C113.914 1.23118 115.001 0 116.744 0H121.285V2.71818H117.192V6.21984H126.194V23.6672H122.916V8.92203H117.192V23.6802H113.914V8.92203H107.407ZM85.1171 5.90011C89.1944 5.90011 91.7847 8.10663 92.3283 11.3045L89.1624 12.008C88.6668 9.81749 87.3077 8.58631 85.1171 8.58631C82.2071 8.58631 80.3363 10.9207 80.3363 14.9501C80.3363 18.8035 82.2071 21.3138 85.1331 21.3138C87.1638 21.3138 88.6988 20.3225 89.1465 18.02H92.4243C91.8806 21.8414 89.3703 24 85.1331 24C80.1285 24 76.8827 20.4344 76.8827 14.9501C76.8827 9.44973 80.1285 5.90011 85.1171 5.90011ZM50.2625 21.0022C50.2625 22.6491 51.1579 23.6565 53.0607 23.6565H57.5697V21.0342H53.5403V8.81838H57.5697V6.19613H53.5403V1.65517H50.6303L50.3265 6.19613H47.4005V8.81838H50.2625V21.0022ZM39.7888 24C34.96 24 32.4177 21.8574 32.1938 18.4037H35.4557C35.6955 20.3864 37.1345 21.3937 39.7888 21.3937C42.0912 21.3937 43.6582 20.4983 43.6582 18.8195C43.6582 16.938 41.5433 16.5441 39.1776 16.1035C36.1755 15.5443 32.7695 14.91 32.7695 11.0647C32.7695 7.89877 35.4397 5.90011 39.5649 5.90011C43.6102 5.90011 45.9127 7.62695 46.5203 10.3451L43.4023 11.0007C43.0026 9.40177 41.8994 8.50636 39.5489 8.50636C37.4703 8.50636 36.0792 9.33781 36.0792 10.8408C36.0792 12.7391 38.194 13.13 40.5568 13.5667C43.5477 14.1195 46.936 14.7457 46.936 18.5956C46.936 21.9374 44.1219 24 39.7888 24ZM59.4002 19.042C59.4002 22.0485 61.5737 23.9996 64.9777 23.9996C68.0302 23.9996 70.1557 22.1605 70.6831 19.9536H70.8109V23.6797H74.0551V12.2294C74.0551 8.32728 71.5461 5.89647 67.0074 5.89647C62.5805 5.89647 60.2472 8.21533 59.608 11.1259L62.7723 11.6217C63.1878 9.73459 64.5302 8.4872 67.0074 8.4872C69.3726 8.4872 70.763 9.59066 70.763 11.6377C70.763 12.5652 70.2516 12.869 69.0849 13.045L65.633 13.5407C61.5897 14.1324 59.4002 15.8436 59.4002 19.042ZM70.763 15.6997C70.763 19.154 69.1169 21.3769 66.0005 21.3769C64.1147 21.3769 62.8842 20.4333 62.8842 18.7542C62.8842 17.2029 64.0029 16.2914 66.2562 15.8916L70.763 15.1239V15.6997ZM133.693 14.82L128.241 23.241V23.6893H131.577L136.933 14.82L131.886 6.20687H128.192V6.65513L133.693 14.82ZM143.037 6.65513L138.431 13.4915L136.752 10.627L139.342 6.20687H143.037V6.65513Z" fill="white"/>
<path d="M136.752 18.8886L139.651 23.6894H142.988V23.2412L138.401 16.1575L136.752 18.8886Z" fill="white"/>
<path fill-rule="evenodd" clip-rule="evenodd" d="M143.037 6.65566L138.431 13.4921L136.752 10.6275L139.342 6.2074H143.037V6.65566Z" fill="white"/>
<path d="M136.752 18.8886L139.651 23.6894H142.988V23.2412L138.401 16.1575L136.752 18.8886Z" fill="white"/>
<path d="M20.7205 -2.24e-06L24.6042 6.14712L13.3382 6.14712L7.53453 15.791L4.16169 9.56195L9.60108 0.100559L9.62296 0.111258L9.62296 -3.19053e-06L20.7205 -2.24e-06Z" fill="white"/>
<path d="M3.88347 23.7476L-0.000244141 17.6005H11.2658L17.0695 7.95667L20.4423 14.1857L15.0029 23.6471L14.981 23.6364V23.7476H3.88347Z" fill="white"/>
</svg>
