<svg xmlns="http://www.w3.org/2000/svg" width="160" height="23" fill="none" viewBox="0 0 160 23"><path fill="white" d="M21.1229 7.47778h-6.6094c-.0669-1.28889-.7134-2.16667-2.4298-2.16667-1.4267 0-2.53014.57778-2.53014 1.71111 0 .67778.51274 1.03334 1.56044 1.25556l3.4329.86666c3.1431.81111 5.4392 2.23336 5.4392 5.42226 0 5.1-4.5364 8.3666-11.079 8.3666-4.31344 0-9.0058319-1.7444-8.90551935-7.8777H6.57762c.10032 1.6777 1.10344 2.4555 3.36605 2.4555 1.85023 0 2.65273-.6778 2.65273-1.5555 0-.4556-.3233-.9334-1.4936-1.2l-3.56663-.9C3.93606 12.9222 2.06356 11.2667 2.13044 8.2 2.23075 2.86667 6.99002 0 12.6298 0c3.4775.0111111 8.9836 1.24444 8.4931 7.47778Z"></path><path fill="white" d="M34.9103 6.14481 32.0235 22.4559h-6.5091l2.8867-16.31109h-6.3308L23.0734.489258H42.456L41.4529 6.14481h-6.5426Z"></path><path fill="white" d="m43.3701 19.3218-1.7165 3.1333h-7.0664L47.6501.366211h6.3865L59.2529 22.4551h-6.9327l-.613-3.1333h-8.3371Zm6.1525-11.2667-3.2658 5.9778h4.4361l-1.1703-5.9778Z"></path><path fill="white" d="m75.8935 15.9333 5.5061 6.5223h-7.9024l-4.8596-5.7778h-.8137l-1.0365 5.7778h-6.5092L64.1681.5h9.9086c5.3723 0 8.4263 2.42222 8.4263 6.68889 0 3.96671-2.4855 7.28891-6.6095 8.74441Zm-7.0553-5h3.3326c2.1066 0 3.6335-1.19997 3.6335-2.81108 0-1.28889-1.07-2.1-2.753-2.1h-3.3326l-.8805 4.91108Z"></path><path fill="white" d="M103.769 7.47778h-6.6092c-.0669-1.28889-.7133-2.16667-2.4298-2.16667-1.4266 0-2.5301.57778-2.5301 1.71111 0 .67778.5127 1.03334 1.5604 1.25556l3.433.86666c3.1427.81111 5.4387 2.23336 5.4387 5.42226 0 5.1-4.5359 8.3666-11.0785 8.3666-4.3135 0-9.0059-1.7444-8.9056-7.8777h6.5761c.1003 1.6777 1.1034 2.4555 3.366 2.4555 1.8502 0 2.6527-.6778 2.6527-1.5555 0-.4556-.3232-.9334-1.4935-1.2l-3.5667-.9c-3.6001-.9334-5.4726-2.5889-5.4057-5.6556.1003-5.33333 4.8596-8.2 10.4994-8.2 3.4775.0111111 8.9838 1.24444 8.4928 7.47778Z"></path><path fill="white" d="M124.556 22.4556h-6.542l1.393-7.8112h-7.78l-1.393 7.8112h-6.509L107.615.5h6.509l-1.494 8.46667h7.78L121.904.5h6.542l-3.89 21.9556Z"></path><path fill="white" d="M127.755 22.4556 131.645.5h6.509l-3.89 21.9556h-6.509Z"></path><path fill="white" d="M150.259.5c5.506 0 8.905 2.42222 8.905 7.26667 0 5.62223-4.536 9.62223-11.792 9.62223h-2.53l-.903 5.0667h-6.509L141.32.5h8.939Zm-1.75 11.3667c2.363 0 3.956-1.4223 3.956-3.38892 0-1.57778-1.07-2.45556-2.92-2.45556h-2.686l-1.036 5.84448h2.686Z"></path></svg>